<mxfile host="Electron" agent="Mozilla/5.0 (Windows NT 10.0; Win64; x64) AppleWebKit/537.36 (KHTML, like Gecko) draw.io/24.7.17 Chrome/128.0.6613.36 Electron/32.0.1 Safari/537.36" version="24.7.17">
  <diagram id="C5RBs43oDa-KdzZeNtuy" name="Page-1">
    <mxGraphModel dx="987" dy="1754" grid="1" gridSize="10" guides="1" tooltips="1" connect="1" arrows="1" fold="1" page="1" pageScale="1" pageWidth="827" pageHeight="1169" math="0" shadow="0">
      <root>
        <mxCell id="WIyWlLk6GJQsqaUBKTNV-0" />
        <mxCell id="WIyWlLk6GJQsqaUBKTNV-1" parent="WIyWlLk6GJQsqaUBKTNV-0" />
        <mxCell id="WIyWlLk6GJQsqaUBKTNV-2" value="" style="rounded=0;html=1;jettySize=auto;orthogonalLoop=1;fontSize=11;endArrow=block;endFill=0;endSize=8;strokeWidth=1;shadow=0;labelBackgroundColor=none;edgeStyle=orthogonalEdgeStyle;" parent="WIyWlLk6GJQsqaUBKTNV-1" source="WIyWlLk6GJQsqaUBKTNV-3" target="WIyWlLk6GJQsqaUBKTNV-6" edge="1">
          <mxGeometry relative="1" as="geometry" />
        </mxCell>
        <mxCell id="WIyWlLk6GJQsqaUBKTNV-3" value="Пересечение с аномалией" style="rounded=1;whiteSpace=wrap;html=1;fontSize=12;glass=0;strokeWidth=1;shadow=0;" parent="WIyWlLk6GJQsqaUBKTNV-1" vertex="1">
          <mxGeometry x="340" y="-320" width="120" height="40" as="geometry" />
        </mxCell>
        <mxCell id="WIyWlLk6GJQsqaUBKTNV-5" value="Нет" style="edgeStyle=orthogonalEdgeStyle;rounded=0;html=1;jettySize=auto;orthogonalLoop=1;fontSize=11;endArrow=block;endFill=0;endSize=8;strokeWidth=1;shadow=0;labelBackgroundColor=none;" parent="WIyWlLk6GJQsqaUBKTNV-1" source="WIyWlLk6GJQsqaUBKTNV-6" target="WIyWlLk6GJQsqaUBKTNV-7" edge="1">
          <mxGeometry y="10" relative="1" as="geometry">
            <mxPoint as="offset" />
          </mxGeometry>
        </mxCell>
        <mxCell id="6-93CSxOdGlHAInvIukc-7" style="edgeStyle=orthogonalEdgeStyle;rounded=0;orthogonalLoop=1;jettySize=auto;html=1;exitX=0;exitY=0.5;exitDx=0;exitDy=0;entryX=0.5;entryY=0;entryDx=0;entryDy=0;" edge="1" parent="WIyWlLk6GJQsqaUBKTNV-1" source="WIyWlLk6GJQsqaUBKTNV-6" target="6-93CSxOdGlHAInvIukc-6">
          <mxGeometry relative="1" as="geometry">
            <Array as="points">
              <mxPoint x="150" y="-170" />
            </Array>
          </mxGeometry>
        </mxCell>
        <mxCell id="6-93CSxOdGlHAInvIukc-11" value="Да" style="edgeLabel;html=1;align=center;verticalAlign=middle;resizable=0;points=[];" vertex="1" connectable="0" parent="6-93CSxOdGlHAInvIukc-7">
          <mxGeometry x="-0.7008" y="-1" relative="1" as="geometry">
            <mxPoint as="offset" />
          </mxGeometry>
        </mxCell>
        <mxCell id="WIyWlLk6GJQsqaUBKTNV-6" value="Аномалия готова? (Прошло КД и инициатор указан в списке инициаторов" style="rhombus;whiteSpace=wrap;html=1;shadow=0;fontFamily=Helvetica;fontSize=12;align=center;strokeWidth=1;spacing=6;spacingTop=-4;" parent="WIyWlLk6GJQsqaUBKTNV-1" vertex="1">
          <mxGeometry x="320" y="-240" width="160" height="140" as="geometry" />
        </mxCell>
        <mxCell id="WIyWlLk6GJQsqaUBKTNV-7" value="Конец кода" style="rounded=1;whiteSpace=wrap;html=1;fontSize=12;glass=0;strokeWidth=1;shadow=0;" parent="WIyWlLk6GJQsqaUBKTNV-1" vertex="1">
          <mxGeometry x="510" y="-190" width="120" height="40" as="geometry" />
        </mxCell>
        <mxCell id="6-93CSxOdGlHAInvIukc-20" style="edgeStyle=orthogonalEdgeStyle;rounded=0;orthogonalLoop=1;jettySize=auto;html=1;exitX=0;exitY=0.5;exitDx=0;exitDy=0;entryX=0.5;entryY=0;entryDx=0;entryDy=0;" edge="1" parent="WIyWlLk6GJQsqaUBKTNV-1" source="WIyWlLk6GJQsqaUBKTNV-10" target="6-93CSxOdGlHAInvIukc-1">
          <mxGeometry relative="1" as="geometry" />
        </mxCell>
        <mxCell id="6-93CSxOdGlHAInvIukc-21" value="Да" style="edgeLabel;html=1;align=center;verticalAlign=middle;resizable=0;points=[];" vertex="1" connectable="0" parent="6-93CSxOdGlHAInvIukc-20">
          <mxGeometry x="-0.386" y="-1" relative="1" as="geometry">
            <mxPoint as="offset" />
          </mxGeometry>
        </mxCell>
        <mxCell id="6-93CSxOdGlHAInvIukc-22" style="edgeStyle=orthogonalEdgeStyle;rounded=0;orthogonalLoop=1;jettySize=auto;html=1;exitX=0.5;exitY=1;exitDx=0;exitDy=0;" edge="1" parent="WIyWlLk6GJQsqaUBKTNV-1" source="WIyWlLk6GJQsqaUBKTNV-10">
          <mxGeometry relative="1" as="geometry">
            <mxPoint x="190.1428571428571" y="-170" as="targetPoint" />
          </mxGeometry>
        </mxCell>
        <mxCell id="6-93CSxOdGlHAInvIukc-23" value="Нет" style="edgeLabel;html=1;align=center;verticalAlign=middle;resizable=0;points=[];" vertex="1" connectable="0" parent="6-93CSxOdGlHAInvIukc-22">
          <mxGeometry x="-0.3518" y="1" relative="1" as="geometry">
            <mxPoint as="offset" />
          </mxGeometry>
        </mxCell>
        <mxCell id="6-93CSxOdGlHAInvIukc-25" style="edgeStyle=orthogonalEdgeStyle;rounded=0;orthogonalLoop=1;jettySize=auto;html=1;exitX=1;exitY=0.5;exitDx=0;exitDy=0;entryX=1;entryY=0.5;entryDx=0;entryDy=0;" edge="1" parent="WIyWlLk6GJQsqaUBKTNV-1" target="WIyWlLk6GJQsqaUBKTNV-10">
          <mxGeometry relative="1" as="geometry">
            <mxPoint x="280" y="-170" as="sourcePoint" />
            <Array as="points">
              <mxPoint x="280" y="-240" />
            </Array>
          </mxGeometry>
        </mxCell>
        <mxCell id="WIyWlLk6GJQsqaUBKTNV-10" value="Аномалия подтипа ТЕСЛА и не взведена другой теслой?" style="rhombus;whiteSpace=wrap;html=1;shadow=0;fontFamily=Helvetica;fontSize=12;align=center;strokeWidth=1;spacing=6;spacingTop=-4;" parent="WIyWlLk6GJQsqaUBKTNV-1" vertex="1">
          <mxGeometry x="120" y="-290" width="140" height="100" as="geometry" />
        </mxCell>
        <mxCell id="6-93CSxOdGlHAInvIukc-54" style="edgeStyle=orthogonalEdgeStyle;rounded=0;orthogonalLoop=1;jettySize=auto;html=1;exitX=0.5;exitY=1;exitDx=0;exitDy=0;" edge="1" parent="WIyWlLk6GJQsqaUBKTNV-1" source="6-93CSxOdGlHAInvIukc-1">
          <mxGeometry relative="1" as="geometry">
            <mxPoint x="150" y="-140" as="targetPoint" />
          </mxGeometry>
        </mxCell>
        <mxCell id="6-93CSxOdGlHAInvIukc-1" value="Взвести все теслы в радиусе 3 тайтлов от себя" style="rounded=1;whiteSpace=wrap;html=1;" vertex="1" parent="WIyWlLk6GJQsqaUBKTNV-1">
          <mxGeometry x="10" y="-220" width="120" height="60" as="geometry" />
        </mxCell>
        <mxCell id="6-93CSxOdGlHAInvIukc-12" style="edgeStyle=orthogonalEdgeStyle;rounded=0;orthogonalLoop=1;jettySize=auto;html=1;exitX=0.5;exitY=1;exitDx=0;exitDy=0;entryX=0;entryY=0.5;entryDx=0;entryDy=0;" edge="1" parent="WIyWlLk6GJQsqaUBKTNV-1" source="6-93CSxOdGlHAInvIukc-6" target="6-93CSxOdGlHAInvIukc-26">
          <mxGeometry relative="1" as="geometry">
            <mxPoint x="150" y="80" as="targetPoint" />
          </mxGeometry>
        </mxCell>
        <mxCell id="6-93CSxOdGlHAInvIukc-13" value="Нет" style="edgeLabel;html=1;align=center;verticalAlign=middle;resizable=0;points=[];" vertex="1" connectable="0" parent="6-93CSxOdGlHAInvIukc-12">
          <mxGeometry x="0.0073" y="2" relative="1" as="geometry">
            <mxPoint y="-1" as="offset" />
          </mxGeometry>
        </mxCell>
        <mxCell id="6-93CSxOdGlHAInvIukc-15" style="edgeStyle=orthogonalEdgeStyle;rounded=0;orthogonalLoop=1;jettySize=auto;html=1;exitX=1;exitY=0.5;exitDx=0;exitDy=0;entryX=0;entryY=0.5;entryDx=0;entryDy=0;" edge="1" parent="WIyWlLk6GJQsqaUBKTNV-1" source="6-93CSxOdGlHAInvIukc-6" target="6-93CSxOdGlHAInvIukc-14">
          <mxGeometry relative="1" as="geometry" />
        </mxCell>
        <mxCell id="6-93CSxOdGlHAInvIukc-53" value="Да&lt;div&gt;&lt;br&gt;&lt;/div&gt;" style="edgeLabel;html=1;align=center;verticalAlign=middle;resizable=0;points=[];" vertex="1" connectable="0" parent="6-93CSxOdGlHAInvIukc-15">
          <mxGeometry x="-0.2349" y="1" relative="1" as="geometry">
            <mxPoint as="offset" />
          </mxGeometry>
        </mxCell>
        <mxCell id="6-93CSxOdGlHAInvIukc-6" value="Аномалия предзарядочная?" style="rhombus;whiteSpace=wrap;html=1;shadow=0;fontFamily=Helvetica;fontSize=12;align=center;strokeWidth=1;spacing=6;spacingTop=-4;" vertex="1" parent="WIyWlLk6GJQsqaUBKTNV-1">
          <mxGeometry x="80" y="-120" width="140" height="100" as="geometry" />
        </mxCell>
        <mxCell id="6-93CSxOdGlHAInvIukc-16" style="edgeStyle=orthogonalEdgeStyle;rounded=0;orthogonalLoop=1;jettySize=auto;html=1;exitX=0.5;exitY=1;exitDx=0;exitDy=0;" edge="1" parent="WIyWlLk6GJQsqaUBKTNV-1">
          <mxGeometry relative="1" as="geometry">
            <mxPoint x="150" y="40" as="targetPoint" />
            <mxPoint x="310" y="-60" as="sourcePoint" />
            <Array as="points">
              <mxPoint x="310" y="40" />
            </Array>
          </mxGeometry>
        </mxCell>
        <mxCell id="6-93CSxOdGlHAInvIukc-14" value="Подождать время, равное cooldown(КД)" style="rounded=1;whiteSpace=wrap;html=1;" vertex="1" parent="WIyWlLk6GJQsqaUBKTNV-1">
          <mxGeometry x="250" y="-100" width="120" height="60" as="geometry" />
        </mxCell>
        <mxCell id="6-93CSxOdGlHAInvIukc-28" style="edgeStyle=orthogonalEdgeStyle;rounded=0;orthogonalLoop=1;jettySize=auto;html=1;exitX=0.5;exitY=1;exitDx=0;exitDy=0;entryX=0.5;entryY=0;entryDx=0;entryDy=0;" edge="1" parent="WIyWlLk6GJQsqaUBKTNV-1" source="6-93CSxOdGlHAInvIukc-26" target="6-93CSxOdGlHAInvIukc-27">
          <mxGeometry relative="1" as="geometry" />
        </mxCell>
        <mxCell id="6-93CSxOdGlHAInvIukc-26" value="ДЛЯ ВСЕХ ОБЪКТОВ В ЗОНЕ ПОРАЖЕНИЯ(effect range)" style="rounded=0;whiteSpace=wrap;html=1;" vertex="1" parent="WIyWlLk6GJQsqaUBKTNV-1">
          <mxGeometry x="190" y="80" width="120" height="60" as="geometry" />
        </mxCell>
        <mxCell id="6-93CSxOdGlHAInvIukc-29" style="edgeStyle=orthogonalEdgeStyle;rounded=0;orthogonalLoop=1;jettySize=auto;html=1;exitX=0.5;exitY=1;exitDx=0;exitDy=0;entryX=0.5;entryY=0;entryDx=0;entryDy=0;" edge="1" parent="WIyWlLk6GJQsqaUBKTNV-1" source="6-93CSxOdGlHAInvIukc-27" target="6-93CSxOdGlHAInvIukc-31">
          <mxGeometry relative="1" as="geometry">
            <mxPoint x="150.1428571428571" y="360" as="targetPoint" />
          </mxGeometry>
        </mxCell>
        <mxCell id="6-93CSxOdGlHAInvIukc-30" value="Да" style="edgeLabel;html=1;align=center;verticalAlign=middle;resizable=0;points=[];" vertex="1" connectable="0" parent="6-93CSxOdGlHAInvIukc-29">
          <mxGeometry x="-0.2604" y="2" relative="1" as="geometry">
            <mxPoint as="offset" />
          </mxGeometry>
        </mxCell>
        <mxCell id="6-93CSxOdGlHAInvIukc-27" value="Цель - живое существо?" style="rhombus;whiteSpace=wrap;html=1;" vertex="1" parent="WIyWlLk6GJQsqaUBKTNV-1">
          <mxGeometry x="80" y="180" width="140" height="110" as="geometry" />
        </mxCell>
        <mxCell id="6-93CSxOdGlHAInvIukc-35" style="edgeStyle=orthogonalEdgeStyle;rounded=0;orthogonalLoop=1;jettySize=auto;html=1;exitX=1;exitY=0.5;exitDx=0;exitDy=0;entryX=0.5;entryY=0;entryDx=0;entryDy=0;" edge="1" parent="WIyWlLk6GJQsqaUBKTNV-1" source="6-93CSxOdGlHAInvIukc-31" target="6-93CSxOdGlHAInvIukc-32">
          <mxGeometry relative="1" as="geometry" />
        </mxCell>
        <mxCell id="6-93CSxOdGlHAInvIukc-38" value="Нет" style="edgeLabel;html=1;align=center;verticalAlign=middle;resizable=0;points=[];" vertex="1" connectable="0" parent="6-93CSxOdGlHAInvIukc-35">
          <mxGeometry x="0.3104" relative="1" as="geometry">
            <mxPoint as="offset" />
          </mxGeometry>
        </mxCell>
        <mxCell id="6-93CSxOdGlHAInvIukc-41" style="edgeStyle=orthogonalEdgeStyle;rounded=0;orthogonalLoop=1;jettySize=auto;html=1;exitX=0.5;exitY=1;exitDx=0;exitDy=0;entryX=0.5;entryY=0;entryDx=0;entryDy=0;" edge="1" parent="WIyWlLk6GJQsqaUBKTNV-1" source="6-93CSxOdGlHAInvIukc-31" target="6-93CSxOdGlHAInvIukc-42">
          <mxGeometry relative="1" as="geometry">
            <mxPoint x="275" y="520" as="targetPoint" />
          </mxGeometry>
        </mxCell>
        <mxCell id="6-93CSxOdGlHAInvIukc-49" value="Да" style="edgeLabel;html=1;align=center;verticalAlign=middle;resizable=0;points=[];" vertex="1" connectable="0" parent="6-93CSxOdGlHAInvIukc-41">
          <mxGeometry x="-0.3048" y="3" relative="1" as="geometry">
            <mxPoint as="offset" />
          </mxGeometry>
        </mxCell>
        <mxCell id="6-93CSxOdGlHAInvIukc-31" value="Цель - адхерант?" style="rhombus;whiteSpace=wrap;html=1;" vertex="1" parent="WIyWlLk6GJQsqaUBKTNV-1">
          <mxGeometry x="220" y="330" width="110" height="110" as="geometry" />
        </mxCell>
        <mxCell id="6-93CSxOdGlHAInvIukc-36" style="edgeStyle=orthogonalEdgeStyle;rounded=0;orthogonalLoop=1;jettySize=auto;html=1;exitX=1;exitY=0.5;exitDx=0;exitDy=0;entryX=0.5;entryY=0;entryDx=0;entryDy=0;" edge="1" parent="WIyWlLk6GJQsqaUBKTNV-1" source="6-93CSxOdGlHAInvIukc-32" target="6-93CSxOdGlHAInvIukc-33">
          <mxGeometry relative="1" as="geometry" />
        </mxCell>
        <mxCell id="6-93CSxOdGlHAInvIukc-39" value="Нет" style="edgeLabel;html=1;align=center;verticalAlign=middle;resizable=0;points=[];" vertex="1" connectable="0" parent="6-93CSxOdGlHAInvIukc-36">
          <mxGeometry x="0.4211" relative="1" as="geometry">
            <mxPoint as="offset" />
          </mxGeometry>
        </mxCell>
        <mxCell id="6-93CSxOdGlHAInvIukc-44" style="edgeStyle=orthogonalEdgeStyle;rounded=0;orthogonalLoop=1;jettySize=auto;html=1;exitX=0.5;exitY=1;exitDx=0;exitDy=0;entryX=0.5;entryY=0;entryDx=0;entryDy=0;" edge="1" parent="WIyWlLk6GJQsqaUBKTNV-1" source="6-93CSxOdGlHAInvIukc-32" target="6-93CSxOdGlHAInvIukc-43">
          <mxGeometry relative="1" as="geometry" />
        </mxCell>
        <mxCell id="6-93CSxOdGlHAInvIukc-50" value="Да" style="edgeLabel;html=1;align=center;verticalAlign=middle;resizable=0;points=[];" vertex="1" connectable="0" parent="6-93CSxOdGlHAInvIukc-44">
          <mxGeometry x="-0.4" y="-3" relative="1" as="geometry">
            <mxPoint as="offset" />
          </mxGeometry>
        </mxCell>
        <mxCell id="6-93CSxOdGlHAInvIukc-32" value="Цель - человек?" style="rhombus;whiteSpace=wrap;html=1;" vertex="1" parent="WIyWlLk6GJQsqaUBKTNV-1">
          <mxGeometry x="370" y="330" width="110" height="110" as="geometry" />
        </mxCell>
        <mxCell id="6-93CSxOdGlHAInvIukc-37" style="edgeStyle=orthogonalEdgeStyle;rounded=0;orthogonalLoop=1;jettySize=auto;html=1;exitX=1;exitY=0.5;exitDx=0;exitDy=0;entryX=0.5;entryY=0;entryDx=0;entryDy=0;" edge="1" parent="WIyWlLk6GJQsqaUBKTNV-1" source="6-93CSxOdGlHAInvIukc-33" target="6-93CSxOdGlHAInvIukc-34">
          <mxGeometry relative="1" as="geometry" />
        </mxCell>
        <mxCell id="6-93CSxOdGlHAInvIukc-40" value="Нет" style="edgeLabel;html=1;align=center;verticalAlign=middle;resizable=0;points=[];" vertex="1" connectable="0" parent="6-93CSxOdGlHAInvIukc-37">
          <mxGeometry x="0.3354" y="1" relative="1" as="geometry">
            <mxPoint as="offset" />
          </mxGeometry>
        </mxCell>
        <mxCell id="6-93CSxOdGlHAInvIukc-47" style="edgeStyle=orthogonalEdgeStyle;rounded=0;orthogonalLoop=1;jettySize=auto;html=1;exitX=0.5;exitY=1;exitDx=0;exitDy=0;entryX=0.5;entryY=0;entryDx=0;entryDy=0;" edge="1" parent="WIyWlLk6GJQsqaUBKTNV-1" source="6-93CSxOdGlHAInvIukc-33" target="6-93CSxOdGlHAInvIukc-45">
          <mxGeometry relative="1" as="geometry" />
        </mxCell>
        <mxCell id="6-93CSxOdGlHAInvIukc-51" value="Да" style="edgeLabel;html=1;align=center;verticalAlign=middle;resizable=0;points=[];" vertex="1" connectable="0" parent="6-93CSxOdGlHAInvIukc-47">
          <mxGeometry x="-0.3683" relative="1" as="geometry">
            <mxPoint as="offset" />
          </mxGeometry>
        </mxCell>
        <mxCell id="6-93CSxOdGlHAInvIukc-33" value="Цель - борг?" style="rhombus;whiteSpace=wrap;html=1;" vertex="1" parent="WIyWlLk6GJQsqaUBKTNV-1">
          <mxGeometry x="530" y="330" width="110" height="110" as="geometry" />
        </mxCell>
        <mxCell id="6-93CSxOdGlHAInvIukc-48" style="edgeStyle=orthogonalEdgeStyle;rounded=0;orthogonalLoop=1;jettySize=auto;html=1;exitX=0.5;exitY=1;exitDx=0;exitDy=0;entryX=0.5;entryY=0;entryDx=0;entryDy=0;" edge="1" parent="WIyWlLk6GJQsqaUBKTNV-1" source="6-93CSxOdGlHAInvIukc-34" target="6-93CSxOdGlHAInvIukc-46">
          <mxGeometry relative="1" as="geometry" />
        </mxCell>
        <mxCell id="6-93CSxOdGlHAInvIukc-52" value="Да" style="edgeLabel;html=1;align=center;verticalAlign=middle;resizable=0;points=[];" vertex="1" connectable="0" parent="6-93CSxOdGlHAInvIukc-48">
          <mxGeometry x="-0.4" y="-2" relative="1" as="geometry">
            <mxPoint as="offset" />
          </mxGeometry>
        </mxCell>
        <mxCell id="6-93CSxOdGlHAInvIukc-57" style="edgeStyle=orthogonalEdgeStyle;rounded=0;orthogonalLoop=1;jettySize=auto;html=1;exitX=1;exitY=0.5;exitDx=0;exitDy=0;entryX=0.5;entryY=0;entryDx=0;entryDy=0;" edge="1" parent="WIyWlLk6GJQsqaUBKTNV-1" source="6-93CSxOdGlHAInvIukc-34" target="6-93CSxOdGlHAInvIukc-55">
          <mxGeometry relative="1" as="geometry" />
        </mxCell>
        <mxCell id="6-93CSxOdGlHAInvIukc-58" value="Нет" style="edgeLabel;html=1;align=center;verticalAlign=middle;resizable=0;points=[];" vertex="1" connectable="0" parent="6-93CSxOdGlHAInvIukc-57">
          <mxGeometry x="0.4097" y="-1" relative="1" as="geometry">
            <mxPoint as="offset" />
          </mxGeometry>
        </mxCell>
        <mxCell id="6-93CSxOdGlHAInvIukc-34" value="Цель - мех?" style="rhombus;whiteSpace=wrap;html=1;" vertex="1" parent="WIyWlLk6GJQsqaUBKTNV-1">
          <mxGeometry x="690" y="330" width="110" height="110" as="geometry" />
        </mxCell>
        <mxCell id="6-93CSxOdGlHAInvIukc-42" value="полностью зарядить адхеранта" style="rounded=0;whiteSpace=wrap;html=1;" vertex="1" parent="WIyWlLk6GJQsqaUBKTNV-1">
          <mxGeometry x="215" y="500" width="120" height="60" as="geometry" />
        </mxCell>
        <mxCell id="6-93CSxOdGlHAInvIukc-43" value="С шансом (14 * уровень атлетики) получает 50 урона. Иначе 50 урона, стан и тряска.&lt;br&gt;Если цель лежит - повреждаем 1 часть тела. Если нет - ток идёт от точки поражения к земли, урон по конечностям распределяется по формуле 50/количество конечностей" style="rounded=0;whiteSpace=wrap;html=1;" vertex="1" parent="WIyWlLk6GJQsqaUBKTNV-1">
          <mxGeometry x="365" y="500" width="125" height="240" as="geometry" />
        </mxCell>
        <mxCell id="6-93CSxOdGlHAInvIukc-45" value="50 урона" style="rounded=0;whiteSpace=wrap;html=1;" vertex="1" parent="WIyWlLk6GJQsqaUBKTNV-1">
          <mxGeometry x="525" y="500" width="120" height="60" as="geometry" />
        </mxCell>
        <mxCell id="6-93CSxOdGlHAInvIukc-46" value="100 урона, ЭМИ удар" style="rounded=0;whiteSpace=wrap;html=1;" vertex="1" parent="WIyWlLk6GJQsqaUBKTNV-1">
          <mxGeometry x="685" y="500" width="120" height="60" as="geometry" />
        </mxCell>
        <mxCell id="6-93CSxOdGlHAInvIukc-59" style="edgeStyle=orthogonalEdgeStyle;rounded=0;orthogonalLoop=1;jettySize=auto;html=1;exitX=0.5;exitY=1;exitDx=0;exitDy=0;entryX=0.5;entryY=0;entryDx=0;entryDy=0;" edge="1" parent="WIyWlLk6GJQsqaUBKTNV-1" source="6-93CSxOdGlHAInvIukc-55" target="6-93CSxOdGlHAInvIukc-56">
          <mxGeometry relative="1" as="geometry" />
        </mxCell>
        <mxCell id="6-93CSxOdGlHAInvIukc-55" value="Цель - обычный моб?" style="rhombus;whiteSpace=wrap;html=1;" vertex="1" parent="WIyWlLk6GJQsqaUBKTNV-1">
          <mxGeometry x="850" y="330" width="110" height="110" as="geometry" />
        </mxCell>
        <mxCell id="6-93CSxOdGlHAInvIukc-56" value="100 урона, стан" style="rounded=0;whiteSpace=wrap;html=1;" vertex="1" parent="WIyWlLk6GJQsqaUBKTNV-1">
          <mxGeometry x="845" y="500" width="120" height="60" as="geometry" />
        </mxCell>
      </root>
    </mxGraphModel>
  </diagram>
</mxfile>
